Jump_normalized_Motion_pl05
version=1
nRows=18
nColumns=43
inDegrees=yes
endheader
time		pelvis_tilt		pelvis_list		pelvis_rotation		pelvis_tx		pelvis_ty		pelvis_tz		hip_flexion_r		hip_adduction_r		hip_rotation_r		knee_angle_r		ankle_angle_r		subtalar_angle_r		mtp_angle_r		hip_flexion_l		hip_adduction_l		hip_rotation_l		knee_angle_l		ankle_angle_l		subtalar_angle_l		mtp_angle_l		lumbar_extension		lumbar_bending		lumbar_rotation		neck_flexion		neck_lateral_bending		neck_rotation		arm_flex_r		arm_add_r		arm_rot_r		elbow_flex_r		pro_sup_r		wrist_flex_r		wrist_dev_r		hand_finger_flex_r		arm_flex_l		arm_add_l		arm_rot_l		elbow_flex_l		pro_sup_l		wrist_flex_l		wrist_dev_l		hand_finger_flex_l		
0.463333		3.571108		-31.162497		95.371460		0.037532		1.724517		1.675968		73.748550		-12.754603		4.174883		-133.584642		37.197754		7.668784		-17.099361		77.298123		-12.337683		9.765034		-131.728273		38.426671		0.720341		-23.678232		-24.733085		2.677919		0.746919		30.885689		-0.463179		4.219521		122.612470		-18.253533		45.453584		63.197109		55.203250		-25.450767		-22.322160		63.701582		127.100123		-19.801330		58.450854		69.211262		57.680286		-47.616252		2.766864		71.522545		
0.466263		3.572101		-30.979115		95.423999		0.037216		1.726851		1.669605		72.845645		-12.769098		4.093273		-133.139841		36.378495		7.764493		-17.080025		76.468503		-12.286778		9.807263		-131.340094		37.496239		0.872694		-23.675872		-24.587160		2.760510		0.719815		30.289277		-0.554747		4.234729		122.819549		-18.164603		45.842671		62.875476		55.156457		-25.445102		-22.091794		63.586777		127.301441		-19.775572		58.845746		68.868055		57.667886		-47.521212		2.745800		71.635533		
0.469192		3.565480		-30.743218		95.467049		0.036794		1.729182		1.663069		71.898367		-12.792346		4.014501		-132.694796		35.467207		7.823576		-17.055965		75.603943		-12.235363		9.830835		-130.953881		36.466050		0.985504		-23.669683		-24.487933		2.844355		0.664588		29.678238		-0.648670		4.258747		122.995823		-18.072020		46.230290		62.568202		55.118214		-25.414476		-21.853637		63.448909		127.486381		-19.752712		59.270882		68.543812		57.637252		-47.419028		2.734457		71.743014		
0.472121		3.555976		-30.828504		95.510234		0.036597		1.731121		1.656883		71.310864		-12.755834		3.972709		-132.220841		35.033069		7.861283		-17.055660		75.054936		-12.193190		9.792467		-130.540444		35.978170		1.055997		-23.676666		-24.088426		2.876344		0.658273		29.492628		-0.683112		4.269349		123.059315		-18.005668		46.422896		62.394988		55.109025		-25.396921		-21.741098		63.389177		127.557998		-19.728265		59.484325		68.363041		57.619136		-47.373589		2.748625		71.778450		
0.475051		3.527602		-29.664410		95.674894		0.035938		1.735201		1.649480		69.319725		-12.887410		3.654390		-131.696661		33.444395		7.364512		-16.725563		73.260239		-12.066082		9.814662		-130.115606		34.223566		0.498319		-23.366195		-25.122177		3.104766		0.473787		28.983632		-0.833644		4.361676		123.514185		-17.829837		46.918012		61.946586		55.017132		-25.142955		-21.294903		62.778268		128.118472		-19.863763		60.236742		67.973264		57.319820		-47.105679		2.499178		72.054400		
0.477980		3.499056		-29.580778		95.698406		0.035672		1.737093		1.642994		68.656582		-12.869471		3.660006		-131.277993		32.423731		7.506613		-16.711497		72.680119		-12.063596		9.814913		-129.775629		33.067506		0.762345		-23.369894		-24.824857		3.134186		0.429927		28.201129		-0.908646		4.401916		123.511147		-17.804103		47.233684		61.736945		55.072064		-25.063875		-21.148279		62.641990		128.162056		-19.865423		60.637633		67.735537		57.235311		-47.077265		2.545863		72.078438		
0.480909		3.477565		-29.206354		95.778057		0.035307		1.739570		1.636230		67.667275		-12.888239		3.523566		-130.813131		31.143425		7.259116		-16.554867		71.810843		-12.015117		9.788951		-129.401673		31.705670		0.538482		-23.199983		-24.903431		3.219395		0.319793		27.635169		-0.954441		4.451919		123.585277		-17.712106		47.505695		61.464772		55.172931		-24.878565		-20.958883		62.284222		128.357170		-19.908305		61.168771		67.485881		56.997441		-46.985863		2.479884		72.119821		
0.483838		3.458880		-28.722051		95.875548		0.034928		1.742244		1.629339		66.563798		-12.911813		3.333757		-130.332679		29.791566		6.878593		-16.289018		70.852497		-11.965684		9.748468		-129.009951		30.251347		0.173280		-22.905102		-25.128729		3.325160		0.189821		27.150331		-0.996426		4.520892		123.673044		-17.620921		47.755925		61.212207		55.320642		-24.610757		-20.764547		61.796416		128.602475		-19.990141		61.757956		67.271443		56.656457		-46.879760		2.341213		72.161555		
0.486768		3.449623		-28.325703		95.976628		0.034577		1.744666		1.622550		65.627571		-12.927122		3.144487		-129.876973		28.281525		6.463876		-16.032662		70.049413		-11.924260		9.706623		-128.643004		28.650786		-0.257812		-22.572496		-25.239059		3.418460		0.058518		26.595125		-1.002937		4.572982		123.696905		-17.549291		47.970395		60.969841		55.549155		-24.359668		-20.588890		61.321280		128.808985		-20.045928		62.365519		67.038838		56.297996		-46.779518		2.205769		72.149026		
0.489697		3.426913		-28.082708		96.036722		0.034301		1.746678		1.615839		64.919689		-12.938234		3.048604		-129.454551		26.822120		6.402178		-15.953970		69.453318		-11.935717		9.670543		-128.312905		27.099222		-0.286998		-22.449592		-25.144611		3.465048		-0.044034		25.868814		-1.034428		4.609831		123.653892		-17.536203		48.253777		60.790330		55.718363		-24.209009		-20.435570		61.065165		128.891388		-20.085364		62.880703		66.842385		56.105632		-46.704697		2.180429		72.142957		
0.492626		3.433442		-27.613169		96.165700		0.033928		1.749172		1.609040		63.993525		-12.969894		2.748476		-128.992972		24.935205		5.616730		-15.641129		68.669707		-11.856660		9.602062		-127.936277		25.092280		-1.245165		-21.967576		-25.366310		3.571530		-0.194254		25.413425		-0.967105		4.648452		123.666379		-17.482209		48.424563		60.568411		56.076484		-23.974921		-20.267093		60.521565		129.163915		-20.123166		63.580043		66.580405		55.651324		-46.554604		1.972398		72.088872		
0.495556		3.419463		-27.280124		96.256091		0.033637		1.751283		1.602333		63.282346		-12.979040		2.586961		-128.576996		23.071836		5.263962		-15.272892		68.071294		-11.840307		9.546223		-127.586378		23.100145		-1.697649		-21.403958		-25.406851		3.629036		-0.322906		24.771448		-0.933637		4.679703		123.615265		-17.489655		48.636031		60.407062		56.431991		-23.730909		-20.089991		60.027482		129.332964		-20.160317		64.240902		66.369076		55.224999		-46.459773		1.774439		72.021147		
0.498485		3.396160		-27.101581		96.295482		0.033402		1.752967		1.595765		62.822047		-12.997571		2.533995		-128.195086		21.254269		5.386239		-15.348079		67.680606		-11.873032		9.530949		-127.273727		21.196845		-1.610742		-21.440379		-25.245760		3.648599		-0.405927		23.942784		-0.938495		4.685799		123.539502		-17.529940		48.971447		60.275251		56.597740		-23.689454		-19.965662		59.936269		129.349645		-20.161910		64.727175		66.165800		55.163545		-46.391676		1.828731		72.019050		
0.501414		3.394891		-26.780258		96.405358		0.033070		1.754992		1.589218		62.249031		-13.029604		2.285603		-127.778234		18.925752		4.600005		-15.212730		67.203962		-11.801087		9.434700		-126.905152		18.712225		-2.763567		-21.161209		-25.304408		3.702298		-0.529044		23.410104		-0.814762		4.682475		123.499816		-17.592331		49.225373		60.151553		56.976906		-23.668132		-19.859621		59.638629		129.536380		-20.122733		65.385121		65.880322		54.910505		-46.254374		1.721373		71.988916		
0.504343		3.365357		-26.431872		96.497246		0.032763		1.757019		1.582687		61.698044		-13.068709		2.035161		-127.360851		16.367410		3.592231		-14.700011		66.722836		-11.713759		9.273513		-126.515121		15.980141		-4.229603		-20.378819		-25.415105		3.718139		-0.666538		22.938923		-0.651674		4.681411		123.443027		-17.691224		49.427544		60.079901		57.510225		-23.587501		-19.715076		59.157999		129.781168		-20.089206		66.146185		65.597813		54.469968		-46.125957		1.447972		71.934129		
0.507273		3.317197		-26.176153		96.545555		0.032529		1.758755		1.576273		61.321194		-13.098475		1.900609		-126.964007		13.731277		2.967201		-14.120085		66.378867		-11.666668		9.144083		-126.149324		13.296578		-5.223884		-19.531157		-25.411916		3.693398		-0.777258		22.332114		-0.515610		4.672399		123.363869		-17.808177		49.669489		60.021586		57.991211		-23.506837		-19.567737		58.762773		129.953941		-20.044898		66.853285		65.338484		54.153821		-46.053523		1.250039		71.919145		
0.510202		3.272282		-25.946576		96.577741		0.032314		1.760383		1.569972		61.042066		-13.136291		1.778153		-126.564338		10.920328		2.317133		-13.641985		66.107187		-11.624874		9.027566		-125.778137		10.599417		-6.232228		-18.806967		-25.394898		3.662691		-0.859220		21.747276		-0.371797		4.651773		123.300695		-17.940770		49.949542		59.970017		58.452934		-23.500313		-19.452746		58.467306		130.106534		-19.982345		67.514122		65.064596		53.992438		-45.992523		1.140684		71.947494		
0.513131		3.219697		-25.725058		96.602166		0.032097		1.761929		1.563749		60.828430		-13.154568		1.692654		-126.151615		7.957693		1.535386		-13.200679		65.878220		-11.571923		8.895886		-125.405172		7.924459		-7.317341		-18.073553		-25.384491		3.616334		-0.937699		21.180562		-0.217293		4.626187		123.240735		-18.103194		50.246064		59.940929		58.945159		-23.544582		-19.345290		58.210472		130.259366		-19.904121		68.168175		64.788732		53.917488		-45.939565		1.060192		72.007299		
